<svg xmlns="http://www.w3.org/2000/svg" width="15.988" height="16" viewBox="0 0 15.988 16">
    <defs>
        <style>
            .cls-1{fill:#fff;opacity:0}.cls-2{fill:#444}
        </style>
    </defs>
    <g id="Group_645" data-name="Group 645" transform="translate(16906 -2712)">
        <path id="Rectangle_488" d="M0 0h15.988v16H0z" class="cls-1" data-name="Rectangle 488" transform="translate(-16906 2712)"/>
        <path id="Path_174" d="M5.844-3.637a4.737 4.737 0 0 1-2.5-.7 5.13 5.13 0 0 1-1.826-1.881 5.166 5.166 0 0 1-.674-2.6 5.166 5.166 0 0 1 .674-2.6A5.13 5.13 0 0 1 3.344-13.3a4.737 4.737 0 0 1 2.5-.7 5.166 5.166 0 0 1 .918.081.237.237 0 0 1 .186.2.251.251 0 0 1-.107.263 3.846 3.846 0 0 0-1.455 1.477 4.09 4.09 0 0 0-.537 2.044 4.051 4.051 0 0 0 .651 2.25 3.842 3.842 0 0 0 1.731 1.477 3.791 3.791 0 0 0 2.285.263.188.188 0 0 1 .234.111.233.233 0 0 1-.02.273 4.918 4.918 0 0 1-1.718 1.418 4.8 4.8 0 0 1-2.168.506z" class="cls-2" data-name="Path 174" transform="translate(-16903.125 2728.819)"/>
    </g>
</svg>
