<svg xmlns="http://www.w3.org/2000/svg" id="round-wb_sunny-24px" width="16" height="16" viewBox="0 0 16 16">
    <defs>
        <style>
            .cls-1{fill:none}.cls-2{fill:#d6d6d6}
        </style>
    </defs>
    <path id="Path_175" d="M0 0h16v16H0z" class="cls-1" data-name="Path 175"/>
    <path id="Path_176" d="M3.936 2.622L3.709 2.4a.58.58 0 0 0-.814 0h-.006a.565.565 0 0 0 0 .808l.227.225a.575.575 0 0 0 .814 0l.006-.006a.565.565 0 0 0 0-.808zM2.169 6.293h-.593A.571.571 0 0 0 1 6.864v.006a.571.571 0 0 0 .576.571h.587a.564.564 0 0 0 .581-.566V6.87a.572.572 0 0 0-.575-.577zM7.4.55h-.005a.572.572 0 0 0-.581.571v.554a.571.571 0 0 0 .576.571h.006a.564.564 0 0 0 .581-.566v-.56A.571.571 0 0 0 7.4.55zm4.5 1.85a.587.587 0 0 0-.82-.006l-.227.225a.565.565 0 0 0 0 .808l.006.006a.575.575 0 0 0 .814 0l.227-.225a.565.565 0 0 0 0-.808zm-1.052 8.715l.227.225a.582.582 0 0 0 .82 0 .572.572 0 0 0 0-.814l-.227-.225a.58.58 0 0 0-.814 0 .567.567 0 0 0-.006.817zm1.2-4.254v.009a.571.571 0 0 0 .576.571h.587a.571.571 0 0 0 .576-.571v-.006a.571.571 0 0 0-.576-.571h-.587a.571.571 0 0 0-.578.571zM7.395 3.407a3.463 3.463 0 1 0 3.488 3.463 3.478 3.478 0 0 0-3.488-3.463zm-.006 9.783h.006a.571.571 0 0 0 .576-.571v-.554a.571.571 0 0 0-.576-.571h-.006a.571.571 0 0 0-.576.571v.554a.571.571 0 0 0 .576.571zm-4.5-1.853a.582.582 0 0 0 .82 0l.227-.225a.57.57 0 0 0 0-.808L3.93 10.3a.582.582 0 0 0-.82 0l-.227.225a.577.577 0 0 0 .006.812z" class="cls-2" data-name="Path 176" transform="translate(.6 .33)"/>
</svg>
